<svg width="24" height="23" viewBox="0 0 24 23" fill="none" xmlns="http://www.w3.org/2000/svg">
<path d="M11.7855 0C10.2378 0 8.70527 0.304841 7.27539 0.897119C5.84551 1.4894 4.54628 2.35751 3.4519 3.4519C1.24168 5.66211 0 8.6598 0 11.7855C0 16.9947 3.38244 21.4143 8.06129 22.9817C8.65057 23.076 8.83913 22.7107 8.83913 22.3925V20.4007C5.57455 21.1078 4.8792 18.8215 4.8792 18.8215C4.33707 17.4543 3.57101 17.089 3.57101 17.089C2.49853 16.3583 3.65351 16.3819 3.65351 16.3819C4.83206 16.4644 5.45669 17.5958 5.45669 17.5958C6.48203 19.3872 8.2145 18.8568 8.88628 18.574C8.99234 17.8079 9.29877 17.2893 9.62876 16.9947C7.01238 16.7001 4.26635 15.6865 4.26635 11.1962C4.26635 9.88804 4.7142 8.83913 5.48026 8.00236C5.36241 7.70772 4.94991 6.48203 5.59812 4.89099C5.59812 4.89099 6.5881 4.57278 8.83913 6.09311C9.77019 5.83383 10.7837 5.70419 11.7855 5.70419C12.7873 5.70419 13.8008 5.83383 14.7319 6.09311C16.9829 4.57278 17.9729 4.89099 17.9729 4.89099C18.6211 6.48203 18.2086 7.70772 18.0908 8.00236C18.8568 8.83913 19.3047 9.88804 19.3047 11.1962C19.3047 15.6983 16.5469 16.6883 13.9187 16.9829C14.343 17.3483 14.7319 18.0672 14.7319 19.1632V22.3925C14.7319 22.7107 14.9205 23.0878 15.5215 22.9817C20.2004 21.4025 23.571 16.9947 23.571 11.7855C23.571 10.2378 23.2662 8.70527 22.6739 7.27539C22.0816 5.84551 21.2135 4.54628 20.1191 3.4519C19.0247 2.35751 17.7255 1.4894 16.2956 0.897119C14.8657 0.304841 13.3332 0 11.7855 0Z" fill=""/>
</svg>
