<svg width="24" height="28" viewBox="0 0 24 28" fill="none" xmlns="http://www.w3.org/2000/svg">
<path d="M12 28L8 24H2.66667C1.93333 24 1.30533 23.7391 0.782667 23.2173C0.260889 22.6947 0 22.0667 0 21.3333V2.66667C0 1.93333 0.260889 1.30533 0.782667 0.782667C1.30533 0.260889 1.93333 0 2.66667 0H21.3333C22.0667 0 22.6947 0.260889 23.2173 0.782667C23.7391 1.30533 24 1.93333 24 2.66667V21.3333C24 22.0667 23.7391 22.6947 23.2173 23.2173C22.6947 23.7391 22.0667 24 21.3333 24H16L12 28ZM13.2 14.6C13.2 13.8 13.2889 13.2111 13.4667 12.8333C13.6444 12.4556 14.0222 11.9778 14.6 11.4C15.3778 10.6222 15.928 9.972 16.2507 9.44933C16.5724 8.92756 16.7333 8.33333 16.7333 7.66667C16.7333 6.48889 16.3333 5.53867 15.5333 4.816C14.7333 4.09422 13.6556 3.73333 12.3 3.73333C11.0778 3.73333 10.0391 4.03333 9.184 4.63333C8.328 5.23333 7.73333 6.06667 7.4 7.13333L9.6 8C9.75556 7.4 10.0667 6.91644 10.5333 6.54933C11 6.18311 11.5444 6 12.1667 6C12.7667 6 13.2667 6.16089 13.6667 6.48267C14.0667 6.80533 14.2667 7.23333 14.2667 7.76667C14.2667 8.14444 14.1444 8.54445 13.9 8.96667C13.6556 9.38889 13.2444 9.85556 12.6667 10.3667C11.9333 11.0111 11.428 11.6276 11.1507 12.216C10.8724 12.8053 10.7333 13.6 10.7333 14.6H13.2ZM11.9333 19.7333C12.4 19.7333 12.7947 19.5724 13.1173 19.2507C13.4391 18.928 13.6 18.5333 13.6 18.0667C13.6 17.6 13.4391 17.2053 13.1173 16.8827C12.7947 16.5609 12.4 16.4 11.9333 16.4C11.4667 16.4 11.072 16.5609 10.7493 16.8827C10.4276 17.2053 10.2667 17.6 10.2667 18.0667C10.2667 18.5333 10.4276 18.928 10.7493 19.2507C11.072 19.5724 11.4667 19.7333 11.9333 19.7333Z" fill=""/>
</svg>
