<svg width="24" height="24" viewBox="0 0 24 24" fill="none" xmlns="http://www.w3.org/2000/svg">
<path d="M20.4481 20.4488H16.8921V14.8798C16.8921 13.5518 16.8684 11.8423 15.0426 11.8423C13.1905 11.8423 12.9071 13.2892 12.9071 14.7831V20.4484H9.35111V8.99632H12.7648V10.5614H12.8126C13.1543 9.97723 13.648 9.49667 14.2411 9.1709C14.8342 8.84512 15.5046 8.68632 16.1809 8.71142C19.7851 8.71142 20.4496 11.0822 20.4496 14.1664L20.4481 20.4488ZM5.33862 7.43098C4.1989 7.43117 3.2748 6.50735 3.27462 5.36764C3.27443 4.22792 4.19815 3.30382 5.33787 3.30364C6.47758 3.30335 7.40168 4.22717 7.40187 5.36689C7.40196 5.9142 7.18465 6.43914 6.79771 6.82623C6.41078 7.21332 5.88593 7.43085 5.33862 7.43098ZM7.11668 20.4489H3.5569V8.99632H7.11658V20.4488L7.11668 20.4489ZM22.2209 0.00110587H1.77002C0.803461 -0.00976913 0.0108054 0.764512 -0.00100708 1.73107V22.2673C0.0104304 23.2343 0.802993 24.0093 1.76993 23.9992H22.2209C23.1899 24.0112 23.9856 23.2362 23.999 22.2673V1.72948C23.9852 0.761043 23.1895 -0.0131441 22.2209 -0.000487879" fill=""/>
</svg>
