<svg width="38" height="34" viewBox="0 0 38 34" fill="none" xmlns="http://www.w3.org/2000/svg">
<path d="M3.27102 22.9282C3.27137 22.9785 3.25687 23.0278 3.22953 23.069C3.20219 23.1103 3.16337 23.1416 3.11846 23.1584L2.19004 23.5146L1.85296 24.4956C1.83644 24.5426 1.80671 24.5831 1.76775 24.6118C1.72879 24.6404 1.68247 24.6557 1.63502 24.6557C1.58756 24.6557 1.54124 24.6404 1.50228 24.6118C1.46333 24.5831 1.43359 24.5426 1.41708 24.4956L1.08 23.5146L0.151573 23.1584C0.107084 23.141 0.0687144 23.1096 0.0416188 23.0684C0.0145233 23.0273 0 22.9783 0 22.9282C0 22.878 0.0145233 22.8291 0.0416188 22.7879C0.0687144 22.7468 0.107084 22.7153 0.151573 22.6979L1.08 22.3417L1.41708 21.3608C1.43359 21.3138 1.46333 21.2732 1.50228 21.2446C1.54124 21.216 1.58756 21.2006 1.63502 21.2006C1.68247 21.2006 1.72879 21.216 1.76775 21.2446C1.80671 21.2732 1.83644 21.3138 1.85296 21.3608L2.19004 22.3417L3.11846 22.6979C3.16337 22.7148 3.20219 22.746 3.22953 22.7873C3.25687 22.8286 3.27137 22.8778 3.27102 22.9282Z" fill=""/>
<path d="M31.3728 9.5404C31.3731 9.57703 31.3625 9.61284 31.3426 9.64285C31.3228 9.67286 31.2945 9.69558 31.2619 9.70787L30.5867 9.96689L30.3415 10.6803C30.3295 10.7145 30.3079 10.744 30.2795 10.7648C30.2512 10.7856 30.2175 10.7968 30.183 10.7968C30.1485 10.7968 30.1148 10.7856 30.0865 10.7648C30.0581 10.744 30.0365 10.7145 30.0245 10.6803L29.7793 9.96689L29.1041 9.70787C29.0718 9.69518 29.0439 9.67233 29.0242 9.64239C29.0045 9.61246 28.9939 9.57686 28.9939 9.5404C28.9939 9.50393 29.0045 9.46834 29.0242 9.4384C29.0439 9.40846 29.0718 9.38562 29.1041 9.37293L29.7793 9.1139L30.0245 8.40047C30.0365 8.36628 30.0581 8.3368 30.0865 8.31598C30.1148 8.29516 30.1485 8.284 30.183 8.284C30.2175 8.284 30.2512 8.29516 30.2795 8.31598C30.3079 8.3368 30.3295 8.36628 30.3415 8.40047L30.5867 9.1139L31.2619 9.37293C31.2945 9.38521 31.3228 9.40794 31.3426 9.43795C31.3625 9.46796 31.3731 9.50377 31.3728 9.5404Z" fill=""/>
<path d="M38 20.3095C38.0003 20.3461 37.9897 20.3819 37.9698 20.4119C37.95 20.442 37.9217 20.4647 37.8891 20.477L37.2138 20.736L36.9687 21.4494C36.9567 21.4836 36.9351 21.5131 36.9067 21.5339C36.8784 21.5547 36.8447 21.5659 36.8102 21.5659C36.7757 21.5659 36.742 21.5547 36.7137 21.5339C36.6853 21.5131 36.6637 21.4836 36.6517 21.4494L36.4065 20.736L35.7313 20.477C35.699 20.4643 35.6711 20.4414 35.6514 20.4115C35.6317 20.3816 35.6211 20.346 35.6211 20.3095C35.6211 20.273 35.6317 20.2374 35.6514 20.2075C35.6711 20.1776 35.699 20.1547 35.7313 20.142L36.4065 19.883L36.6517 19.1696C36.6637 19.1354 36.6853 19.1059 36.7137 19.0851C36.742 19.0643 36.7757 19.0531 36.8102 19.0531C36.8447 19.0531 36.8784 19.0643 36.9067 19.0851C36.9351 19.1059 36.9567 19.1354 36.9687 19.1696L37.2138 19.883L37.8891 20.142C37.9217 20.1543 37.95 20.177 37.9698 20.2071C37.9897 20.2371 38.0003 20.2729 38 20.3095Z" fill="black"/>
<path d="M13.1481 29.4219C13.1483 29.4586 13.1378 29.4944 13.1179 29.5244C13.098 29.5544 13.0698 29.5771 13.0371 29.5894L12.3619 29.8484L12.1168 30.5619C12.1048 30.596 12.0831 30.6255 12.0548 30.6463C12.0265 30.6672 11.9928 30.6783 11.9583 30.6783C11.9238 30.6783 11.8901 30.6672 11.8617 30.6463C11.8334 30.6255 11.8118 30.596 11.7998 30.5619L11.5546 29.8484L10.8794 29.5894C10.847 29.5767 10.8191 29.5539 10.7994 29.5239C10.7797 29.494 10.7692 29.4584 10.7692 29.4219C10.7692 29.3855 10.7797 29.3499 10.7994 29.3199C10.8191 29.29 10.847 29.2671 10.8794 29.2545L11.5546 28.9954L11.7998 28.282C11.8118 28.2478 11.8334 28.2183 11.8617 28.1975C11.8901 28.1767 11.9238 28.1655 11.9583 28.1655C11.9928 28.1655 12.0265 28.1767 12.0548 28.1975C12.0831 28.2183 12.1048 28.2478 12.1168 28.282L12.3619 28.9954L13.0371 29.2545C13.0698 29.2667 13.098 29.2895 13.1179 29.3195C13.1378 29.3495 13.1483 29.3853 13.1481 29.4219Z" fill=""/>
<path d="M18.6195 1.72755C18.6198 1.77792 18.6053 1.82715 18.578 1.86842C18.5506 1.90968 18.5118 1.94093 18.4669 1.95783L17.5385 2.31398L17.2014 3.29495C17.1849 3.34196 17.1552 3.3825 17.1162 3.41113C17.0772 3.43976 17.0309 3.4551 16.9835 3.4551C16.936 3.4551 16.8897 3.43976 16.8507 3.41113C16.8118 3.3825 16.782 3.34196 16.7655 3.29495L16.4284 2.31398L15.5 1.95783C15.4555 1.94038 15.4172 1.90896 15.3901 1.8678C15.363 1.82663 15.3484 1.77769 15.3484 1.72755C15.3484 1.67741 15.363 1.62847 15.3901 1.58731C15.4172 1.54614 15.4555 1.51473 15.5 1.49728L16.4284 1.14112L16.7655 0.160152C16.782 0.113145 16.8118 0.0726033 16.8507 0.0439743C16.8897 0.0153453 16.936 0 16.9835 0C17.0309 0 17.0772 0.0153453 17.1162 0.0439743C17.1552 0.0726033 17.1849 0.113145 17.2014 0.160152L17.5385 1.14112L18.4669 1.49728C18.5118 1.51417 18.5506 1.54542 18.578 1.58669C18.6053 1.62795 18.6198 1.67718 18.6195 1.72755Z" fill=""/>
<path d="M30.908 32.2425C30.9083 32.2889 30.8961 32.3343 30.8732 32.3723C30.8503 32.4103 30.8178 32.4391 30.7801 32.4547L30.0017 32.7829L29.7191 33.6868C29.7052 33.7301 29.6803 33.7674 29.6476 33.7938C29.615 33.8202 29.5761 33.8343 29.5364 33.8343C29.4966 33.8343 29.4577 33.8202 29.4251 33.7938C29.3924 33.7674 29.3675 33.7301 29.3536 33.6868L29.071 32.7829L28.2926 32.4547C28.2553 32.4386 28.2231 32.4097 28.2004 32.3717C28.1777 32.3338 28.1655 32.2887 28.1655 32.2425C28.1655 32.1963 28.1777 32.1512 28.2004 32.1133C28.2231 32.0754 28.2553 32.0464 28.2926 32.0303L29.071 31.7022L29.3536 30.7983C29.3675 30.755 29.3924 30.7176 29.4251 30.6912C29.4577 30.6648 29.4966 30.6507 29.5364 30.6507C29.5761 30.6507 29.615 30.6648 29.6476 30.6912C29.6803 30.7176 29.7052 30.755 29.7191 30.7983L30.0017 31.7022L30.7801 32.0303C30.8178 32.0459 30.8503 32.0747 30.8732 32.1127C30.8961 32.1507 30.9083 32.1961 30.908 32.2425Z" fill=""/>
<path d="M7.49507 9.89367C7.49533 9.9303 7.48478 9.96611 7.4649 9.99612C7.44502 10.0261 7.41678 10.0489 7.38412 10.0611L6.7089 10.3202L6.46376 11.0336C6.45175 11.0678 6.43012 11.0973 6.40179 11.1181C6.37345 11.1389 6.33977 11.1501 6.30525 11.1501C6.27074 11.1501 6.23705 11.1389 6.20872 11.1181C6.18039 11.0973 6.15876 11.0678 6.14675 11.0336L5.9016 10.3202L5.22639 10.0611C5.19403 10.0485 5.16612 10.0256 5.14642 9.99567C5.12671 9.96573 5.11615 9.93014 5.11615 9.89367C5.11615 9.8572 5.12671 9.82161 5.14642 9.79167C5.16612 9.76174 5.19403 9.73889 5.22639 9.7262L5.9016 9.46717L6.14675 8.75374C6.15876 8.71956 6.18039 8.69007 6.20872 8.66925C6.23705 8.64843 6.27074 8.63727 6.30525 8.63727C6.33977 8.63727 6.37345 8.64843 6.40179 8.66925C6.43012 8.69007 6.45175 8.71956 6.46376 8.75374L6.7089 9.46717L7.38412 9.7262C7.41678 9.73848 7.44502 9.76121 7.4649 9.79122C7.48478 9.82123 7.49533 9.85704 7.49507 9.89367Z" fill=""/>
<path d="M14.618 15.348C14.7279 14.6273 15.0755 14.0078 15.4873 13.7057C15.5327 13.6723 15.5704 13.6306 15.5982 13.5829C15.6261 13.5352 15.6435 13.4826 15.6496 13.4279C15.6556 13.3732 15.6501 13.3175 15.6334 13.2641C15.6167 13.2107 15.5892 13.1606 15.5523 13.1166C15.5154 13.0727 15.47 13.0357 15.4185 13.0079C15.3671 12.98 15.3107 12.9618 15.2525 12.9543C15.1943 12.9469 15.1355 12.9502 15.0794 12.9642C15.0234 12.9782 14.9711 13.0026 14.9257 13.036C14.2914 13.502 13.868 14.3394 13.7361 15.2013C13.6036 16.069 13.7519 17.0541 14.3876 17.8128C14.4621 17.9016 14.57 17.9599 14.6875 17.9751C14.805 17.9902 14.9225 17.9608 15.0142 17.8934C15.1059 17.826 15.1643 17.726 15.1765 17.6156C15.1887 17.5051 15.1537 17.3931 15.0792 17.3043C14.6463 16.7881 14.5086 16.0633 14.618 15.348Z" fill=""/>
<path fill-rule="evenodd" clip-rule="evenodd" d="M20.601 20.4229C19.4717 21.1147 18.1054 21.3971 16.746 21.2197C13.5656 20.8094 11.256 18.0533 11.5872 15.0634C11.9183 12.0736 14.7648 9.98271 17.9452 10.393C21.1256 10.8033 23.4351 13.5594 23.104 16.5493C22.9566 17.8797 22.3114 19.0319 21.3601 19.8653L22.3558 19.8316L25.3376 23.3899L23.3109 24.8787L20.3291 21.3204L20.601 20.4229ZM21.7751 16.3778C21.5204 18.6777 19.3308 20.2861 16.8843 19.9704C14.4379 19.6548 12.6613 17.5347 12.916 15.2349C13.1708 12.935 15.3604 11.3266 17.8068 11.6423C20.2532 11.9579 22.0298 14.078 21.7751 16.3778Z" fill=""/>
<path d="M25.8987 24.0595L23.872 25.5483L24.4101 26.1905C24.7129 26.5518 25.2608 26.6225 25.6335 26.3483L26.3094 25.8518C26.6826 25.5777 26.7396 25.0626 26.4368 24.7017L25.8987 24.0595Z" fill=""/>
</svg>
