<svg width="61" height="21" viewBox="0 0 61 21" fill="none" xmlns="http://www.w3.org/2000/svg">
<path d="M10.8889 0.958782H17.2724C17.9527 0.958782 19.0189 0.853269 19.5131 1.40305C20.1018 2.05834 20.3017 5.39309 19.7658 6.06782C19.391 6.53985 18.0414 6.68908 17.5 6.7224C15.6778 6.96675 14.4957 6.77864 12.8297 6.77864C11.7191 6.77864 11.3081 6.67591 10.8889 6.09281C10.2641 5.21539 10.8333 2.10276 10.8889 0.958782ZM31.1556 4.89814C32.9743 4.64547 35.0041 4.84816 36.373 6.21427C37.989 7.83028 37.8446 9.89333 37.8196 11.9869C37.7752 15.6771 35.6899 17.6791 31.9886 17.5291C25.5052 17.2653 26.1382 8.98259 27.9403 6.7224C28.8455 5.58397 29.7979 5.22023 31.1556 4.89814ZM39.7633 5.0453H42.2622L44.0893 7.54429L47.8155 12.8199V5.0453H50.0369V17.5402H47.8155L45.8719 14.7636L42.2622 9.48794V17.5402H39.7633V5.0453ZM52.2582 5.0453H60.3105V6.98896H54.7572V10.0433H59.7551V11.9869H54.7572V15.3189H60.3105V17.5402H52.2582V5.0453ZM31.4333 7.10836C28.1235 8.44392 28.4151 14.9385 31.9886 15.4911C36.0425 16.1158 36.5479 9.22972 34.1516 7.4721C33.3492 6.88345 32.3551 6.96952 31.4333 7.10836ZM20.3267 7.62274C20.51 9.05272 20.6543 12.1987 19.577 13.2982C18.8106 14.0785 17.1808 14.0063 16.1617 14.009H10.6084C9.80042 13.9979 6.3185 13.8258 5.89367 13.2871C5.5938 12.9067 5.62156 12.2431 5.65766 11.7877C5.71597 11.0519 5.92977 9.65247 6.37126 9.07493C7.34031 7.80045 10.2475 7.91707 11.7191 7.90041L15.8841 7.62274H20.3267ZM0.33482 20.673C0.426449 19.5485 0.754094 16.3386 1.58709 15.6334C2.44507 14.9059 5.27726 15.1197 6.44345 15.1197H14.4957L19.216 15.3974C19.216 16.6635 19.4576 19.0153 18.5191 19.9372C17.6 20.8396 14.4041 20.9479 13.1074 20.9507H6.16578L0.33482 20.673Z" fill="black"/>
</svg>
