<svg width="158" height="20" viewBox="0 0 158 20" fill="none" xmlns="http://www.w3.org/2000/svg">
<path d="M155.943 6.23879C155.162 5.62201 154.014 5.29555 152.412 5.29555C151.713 5.29555 150.973 5.3362 150.239 5.49942C149.744 5.62201 149.254 5.86717 148.801 6.19814C148.438 6.47516 148.154 6.84303 147.979 7.26461C147.816 7.66982 147.732 8.10306 147.734 8.54011V8.9885C147.693 9.11108 147.775 9.19302 147.897 9.19302H149.866C149.909 9.19015 149.949 9.17203 149.979 9.14202C150.009 9.11201 150.027 9.07214 150.03 9.02979C150.07 8.58075 150.234 8.1672 150.519 7.84074C150.851 7.47364 151.463 7.26461 152.366 7.26461C152.779 7.26461 153.147 7.30525 153.514 7.42783C153.759 7.50913 154.009 7.673 154.213 7.84074C154.499 8.12655 154.708 8.54011 154.708 8.94785V9.52464C154.708 9.72851 154.667 9.93754 154.585 10.1008C154.513 10.2528 154.417 10.3922 154.3 10.5137C154.218 10.6363 154.095 10.7182 153.973 10.8001C153.892 10.8814 153.769 10.9227 153.688 10.9634C153.646 11.004 153.483 11.0447 153.152 11.1672C152.825 11.2898 152.535 11.4124 152.126 11.535C151.714 11.6569 151.305 11.7795 150.892 11.9427C150.479 12.106 150.112 12.1879 149.785 12.3105C149.142 12.5148 148.599 12.9535 148.264 13.5395C147.924 14.0957 147.741 14.7339 147.734 15.386V16.6563C147.775 17.0241 147.815 17.3957 147.938 17.7228C148.061 18.1357 148.306 18.5035 148.637 18.7886C149.004 19.1564 149.499 19.4467 150.035 19.6099C150.775 19.8551 151.596 19.9364 152.377 19.9364C153.171 19.9713 153.964 19.8607 154.718 19.6099C155.251 19.4425 155.742 19.1624 156.157 18.7886C156.484 18.5054 156.726 18.1362 156.856 17.7228C156.986 17.3821 157.055 17.0211 157.059 16.6563V8.61108C157.05 7.67752 156.641 6.81557 155.943 6.23879ZM154.218 17.3654C153.892 17.6918 153.234 17.8957 152.372 17.8957C151.509 17.8957 150.892 17.7325 150.565 17.406C150.203 16.9697 150.026 16.4097 150.07 15.8447C150.07 15.5595 150.112 15.2279 150.275 14.9828C150.397 14.7789 150.561 14.5699 150.729 14.4066C150.892 14.284 151.142 14.1615 151.346 14.0389C151.591 13.9163 151.963 13.835 152.249 13.7124C152.535 13.5898 152.825 13.4679 153.152 13.386C153.478 13.3047 153.769 13.1821 154.055 13.0956C154.218 13.055 154.341 12.9731 154.468 12.8918C154.632 12.8098 154.713 12.6466 154.754 12.4782L154.713 15.8454C154.742 16.3959 154.566 16.9376 154.218 17.3654ZM145.433 5.29555H146.75C146.831 5.29555 146.913 5.37684 146.913 5.45878V5.49942L146.459 7.22396C146.459 7.30525 146.377 7.34654 146.295 7.34654H145.393C144.984 7.34654 144.571 7.38719 144.204 7.55042C143.959 7.63171 143.714 7.79558 143.505 8.00397C143.342 8.1672 143.26 8.33043 143.179 8.53946C143.138 8.70333 143.097 8.90721 143.097 9.07495V19.7486C143.097 19.8712 143.015 19.9525 142.893 19.9525H140.924C140.842 19.9525 140.76 19.8706 140.76 19.7486V8.6214C140.76 8.33559 140.801 8.04526 140.883 7.75945C140.964 7.35106 141.168 6.93815 141.459 6.65234C141.868 6.24395 142.321 5.91233 142.857 5.70846C143.668 5.37684 144.53 5.25426 145.433 5.29555ZM138.74 16.1357V16.6305C138.74 16.9163 138.699 17.248 138.618 17.5338C138.536 17.9422 138.332 18.3144 138.041 18.6409C137.633 19.0493 137.179 19.3802 136.644 19.5848C135.822 19.8706 134.96 20.0383 134.057 19.9925C133.195 20.0338 132.292 19.8699 131.471 19.5848C130.938 19.3824 130.459 19.0594 130.073 18.6409C129.787 18.3144 129.583 17.9422 129.496 17.5338C129.415 17.248 129.415 16.9576 129.374 16.6718V5.46394C129.374 5.34136 129.455 5.25942 129.578 5.25942H131.506C131.629 5.25942 131.71 5.34136 131.71 5.46394V15.886C131.71 16.1312 131.751 16.4215 131.792 16.6667C131.873 16.8705 131.955 17.0751 132.118 17.2428C132.322 17.4473 132.527 17.6105 132.817 17.697C133.226 17.8196 133.638 17.9009 134.047 17.9009C134.455 17.9009 134.909 17.8602 135.317 17.697C135.562 17.6157 135.812 17.4931 136.016 17.2892C136.179 17.126 136.302 16.9628 136.342 16.7538C136.424 16.5086 136.465 16.2176 136.465 15.9318V5.46458C136.465 5.342 136.546 5.26007 136.628 5.26007H138.597C138.72 5.26007 138.801 5.342 138.801 5.46458L138.74 16.137V16.1357ZM125.318 0H127.247C127.369 0 127.451 0.0819365 127.451 0.203874V19.7835C127.451 19.9061 127.369 19.9873 127.247 19.9873H125.318C125.196 19.9873 125.114 19.9061 125.114 19.7835V0.203874C125.155 0.0812914 125.236 0 125.318 0ZM122.074 6.23879C121.293 5.62201 120.145 5.29555 118.543 5.29555C117.844 5.29555 117.105 5.3362 116.365 5.49942C115.834 5.62201 115.34 5.86717 114.927 6.19814C114.564 6.47516 114.28 6.84303 114.105 7.26461C113.942 7.66982 113.858 8.10306 113.86 8.54011V9.02979C113.86 9.15237 113.941 9.23366 114.064 9.23366H115.992C116.035 9.2308 116.075 9.21268 116.105 9.18267C116.135 9.15265 116.153 9.11278 116.156 9.07044C116.196 8.61624 116.36 8.20849 116.645 7.88203C116.972 7.51429 117.589 7.30525 118.492 7.30525C118.905 7.26461 119.273 7.30525 119.64 7.42783C119.885 7.50913 120.135 7.673 120.339 7.84074C120.63 8.12655 120.834 8.54011 120.834 8.94785V9.52464C120.834 9.72851 120.793 9.93754 120.711 10.1008C120.639 10.2528 120.543 10.3922 120.426 10.5137C120.344 10.6363 120.221 10.7182 120.099 10.8001C119.977 10.8814 119.895 10.9227 119.814 10.9634C119.772 11.004 119.609 11.0447 119.278 11.1672C118.951 11.2898 118.661 11.4124 118.252 11.535C117.844 11.6569 117.431 11.7795 117.023 11.9427C116.615 12.106 116.243 12.1879 115.916 12.3105C115.273 12.5148 114.73 12.9535 114.396 13.5395C114.069 14.075 113.86 14.7279 113.86 15.386V16.6563C113.901 17.0241 113.941 17.3957 114.064 17.7228C114.187 18.1357 114.432 18.5035 114.763 18.7886C115.13 19.1564 115.625 19.4467 116.161 19.6099C116.901 19.8551 117.722 19.9364 118.498 19.9364C119.291 19.9713 120.085 19.8607 120.839 19.6099C121.372 19.4425 121.863 19.1624 122.278 18.7886C122.605 18.5054 122.847 18.1362 122.976 17.7228C123.107 17.3821 123.176 17.0211 123.18 16.6563V8.61108C123.183 8.15843 123.085 7.71085 122.894 7.30062C122.702 6.89039 122.422 6.52773 122.074 6.23879ZM120.39 17.3654C120.063 17.6918 119.446 17.8957 118.543 17.8957C117.64 17.8957 117.023 17.7325 116.696 17.406C116.335 16.9697 116.157 16.4097 116.201 15.8447C116.201 15.5595 116.283 15.2279 116.406 14.9828C116.528 14.7789 116.696 14.5699 116.86 14.4066C117.023 14.284 117.273 14.1615 117.477 14.0389C117.722 13.9163 118.094 13.835 118.38 13.7124C118.666 13.5898 118.956 13.4679 119.283 13.386C119.609 13.3047 119.9 13.1821 120.186 13.0956C120.349 13.055 120.472 12.9731 120.599 12.8918C120.762 12.8098 120.844 12.6466 120.885 12.4782V15.8454C120.925 16.4215 120.762 16.9576 120.39 17.3654Z" fill=""/>
<path d="M37.5676 14.4015H43.3167L40.2811 9.49883L34.7056 18.3506H32.1598L38.9502 7.72848C39.0988 7.51365 39.2979 7.33856 39.5299 7.21854C39.762 7.09852 40.0199 7.03725 40.2811 7.04009C40.5379 7.03741 40.7915 7.09735 41.02 7.21471C41.2484 7.33207 41.4448 7.50332 41.5921 7.71365L48.4038 18.3551H45.8631L44.6644 16.3757H38.8327L37.5676 14.4015ZM63.9421 7.14719H61.784V17.2841C61.784 17.5596 61.9014 17.8299 62.1053 18.0286C62.3098 18.2428 62.5956 18.3602 62.8911 18.3602H72.7119L73.9919 16.3809H63.9421V7.14719ZM28.2926 14.7228C28.7902 14.7229 29.2829 14.6248 29.7425 14.4343C30.2022 14.2438 30.6198 13.9646 30.9714 13.6125C31.323 13.2605 31.6018 12.8425 31.7918 12.3827C31.9817 11.9228 32.0791 11.43 32.0785 10.9324C32.0791 10.4348 31.9817 9.942 31.7918 9.48212C31.6018 9.02224 31.323 8.60433 30.9714 8.25228C30.6198 7.90024 30.2022 7.62097 29.7425 7.43046C29.2829 7.23996 28.7902 7.14194 28.2926 7.14202H18.8654V18.3499H21.0183V9.1214H28.15C29.15 9.1214 29.961 9.92787 29.961 10.9279C29.961 11.9279 29.15 12.7485 28.15 12.7485L22.0745 12.7434L28.512 18.3499H31.6397L27.3184 14.7228H28.2926ZM5.60652 18.3551H12.1214C12.8569 18.3554 13.5852 18.2107 14.2646 17.9293C14.9441 17.6478 15.5613 17.2352 16.0811 16.7149C16.6009 16.1946 17.013 15.577 17.2938 14.8973C17.5746 14.2176 17.7187 13.4891 17.7176 12.7537C17.7176 9.65689 15.2228 7.14719 12.1214 7.14719H5.60652C4.11958 7.14719 2.69354 7.73787 1.64211 8.7893C0.590685 9.84073 0 11.2668 0 12.7537C0 15.8505 2.50971 18.3551 5.60652 18.3551ZM11.9731 16.3809H5.7491C3.74908 16.3809 2.12712 14.7537 2.12712 12.7537C2.12627 12.2776 2.21934 11.806 2.401 11.3659C2.58266 10.9257 2.84934 10.5258 3.18577 10.1889C3.5222 9.85195 3.92178 9.5847 4.36164 9.40242C4.80149 9.22014 5.27298 9.1264 5.7491 9.12657H11.9731C12.4497 9.12546 12.9218 9.21852 13.3624 9.40041C13.803 9.5823 14.2033 9.84943 14.5403 10.1865C14.8773 10.5235 15.1445 10.9238 15.3263 11.3644C15.5082 11.8049 15.6013 12.2771 15.6002 12.7537C15.6002 14.7537 13.9782 16.3809 11.9731 16.3809ZM52.8923 18.3551H59.5446L60.8046 16.3809H53.0458C52.5691 16.3813 52.097 16.2878 51.6565 16.1057C51.2159 15.9236 50.8156 15.6566 50.4783 15.3197C50.141 14.9829 49.8733 14.5829 49.6906 14.1426C49.5079 13.7024 49.4138 13.2304 49.4135 12.7537C49.4129 12.2768 49.5065 11.8044 49.6889 11.3638C49.8713 10.9231 50.1389 10.5228 50.4764 10.1858C50.8139 9.84878 51.2146 9.58173 51.6555 9.39997C52.0964 9.2182 52.5689 9.12529 53.0458 9.12657H59.3556L60.6311 7.14719H52.8923C49.7955 7.14719 47.2806 9.65689 47.2806 12.7537C47.2806 15.8505 49.7955 18.3551 52.8923 18.3551ZM79.2416 16.3809C78.452 16.3814 77.6839 16.1241 77.054 15.648C76.424 15.172 75.9668 14.5032 75.7519 13.7434H84.9604L86.2308 11.7692H75.7519C75.966 11.0089 76.423 10.3396 77.0531 9.86337C77.6832 9.38714 78.4518 9.13019 79.2416 9.13173H85.5624L86.8275 7.15235H79.0984C76.0074 7.15235 73.497 9.66206 73.497 12.7589C73.497 15.8557 76.0074 18.3602 79.0984 18.3602H85.7507L87.0159 16.386H79.2416" fill=""/>
<path d="M100.826 8.52462H99.8567V16.8247H100.826V8.52462Z" fill=""/>
<path d="M104.49 13.1602V12.1911H96.1896V13.1602H104.49Z" fill=""/>
</svg>
